<?xml version="1.0" encoding="UTF-8" standalone="no"?>
<svg
   version="1.1"
   viewBox="0 0 48 48"
   id="svg12"
   sodipodi:docname="gnome-tweak-tool.svg"
   inkscape:version="1.3.2 (091e20ef0f, 2023-11-25, custom)"
   xmlns:inkscape="http://www.inkscape.org/namespaces/inkscape"
   xmlns:sodipodi="http://sodipodi.sourceforge.net/DTD/sodipodi-0.dtd"
   xmlns="http://www.w3.org/2000/svg"
   xmlns:svg="http://www.w3.org/2000/svg">
  <sodipodi:namedview
     id="namedview12"
     pagecolor="#ffffff"
     bordercolor="#000000"
     borderopacity="0.25"
     inkscape:showpageshadow="2"
     inkscape:pageopacity="0.0"
     inkscape:pagecheckerboard="0"
     inkscape:deskcolor="#d1d1d1"
     inkscape:zoom="3.5797281"
     inkscape:cx="21.090987"
     inkscape:cy="26.119302"
     inkscape:window-width="1366"
     inkscape:window-height="699"
     inkscape:window-x="0"
     inkscape:window-y="32"
     inkscape:window-maximized="1"
     inkscape:current-layer="svg12" />
  <defs
     id="defs2">
    <linearGradient
       id="bg"
       x1="1"
       x2="47"
       gradientTransform="matrix(0 -1 1 0 -1.5e-6 48)"
       gradientUnits="userSpaceOnUse">
      <stop
         style="stop-color:#84a5e0"
         offset="0"
         id="stop1" />
      <stop
         style="stop-color:#95b1e4"
         offset="1"
         id="stop2" />
    </linearGradient>
  </defs>
  <path
     d="m24 1c12.703 0 23 10.297 23 23s-10.297 23-23 23-23-10.297-23-23 10.297-23 23-23z"
     style="fill:url(#bg)"
     id="path5" />
  <path
     d="m15 18h20c1.105 0 2 0.895 2 2v8c0 1.102-0.895 1.996-2 1.996h-20c-1.105 0-2-0.895-2-1.996v-8c0-1.105 0.895-2 2-2"
     style="fill:#1a5893"
     id="path7" />
  <path
     d="m12.75 17h10.496c0.969 0 1.75 0.785 1.75 1.75v10.5c0 0.965-0.781 1.75-1.75 1.75h-10.496c-0.969 0-1.75-0.785-1.75-1.75v-10.5c0-0.965 0.781-1.75 1.75-1.75"
     style="fill:#f9f9f9"
     id="path8" />
</svg>
