<?xml version="1.0" encoding="UTF-8" standalone="no"?>
<svg
   version="1.1"
   viewBox="0 0 48 48"
   id="svg12"
   sodipodi:docname="inkscape.svg"
   inkscape:version="1.3.2 (091e20ef0f, 2023-11-25, custom)"
   xmlns:inkscape="http://www.inkscape.org/namespaces/inkscape"
   xmlns:sodipodi="http://sodipodi.sourceforge.net/DTD/sodipodi-0.dtd"
   xmlns="http://www.w3.org/2000/svg"
   xmlns:svg="http://www.w3.org/2000/svg">
  <sodipodi:namedview
     id="namedview12"
     pagecolor="#ffffff"
     bordercolor="#000000"
     borderopacity="0.25"
     inkscape:showpageshadow="2"
     inkscape:pageopacity="0.0"
     inkscape:pagecheckerboard="0"
     inkscape:deskcolor="#d1d1d1"
     inkscape:zoom="4.2278573"
     inkscape:cx="33.46849"
     inkscape:cy="47.305287"
     inkscape:window-width="1366"
     inkscape:window-height="699"
     inkscape:window-x="0"
     inkscape:window-y="32"
     inkscape:window-maximized="1"
     inkscape:current-layer="svg12" />
  <defs
     id="defs2">
    <linearGradient
       id="bg"
       x1="1"
       x2="47"
       gradientTransform="matrix(0 -1 1 0 -1.5e-6 48)"
       gradientUnits="userSpaceOnUse">
      <stop
         style="stop-color:#e1ddb1"
         offset="0"
         id="stop1" />
      <stop
         style="stop-color:#e7e4c0"
         offset="1"
         id="stop2" />
    </linearGradient>
  </defs>
  <path
     d="m24 1c12.7 0 23 10.3 23 23s-10.3 23-23 23-23-10.3-23-23 10.3-23 23-23z"
     style="fill:url(#bg)"
     id="path5" />
  <path
     d="m18.8 21.3s0.441 0.656 1.02 0.648c0.598-4e-3 1.17-0.398 1.57-0.816 0.422-0.445 0.715-1.66 0.715-1.66 0.285 0.875 0.547 1.67 1.15 2.29 0.625-0.293 0.914-0.949 1.19-1.53 0.84 0.672 1.64 1.4 2.08 2.34 0.254-0.25 0.504-0.637 0.539-1.06-0.031-0.684-0.18-1.36-0.34-2.05 0.773 0.25 1.51 0.551 2.26 0.93-0.191-0.387-0.336-0.805-0.41-1.2-2.04-1.38-2.49-3.35-3.84-4.74-1.7 2.44-3.46 4.9-5.94 6.84"
     style="fill:#7c6f7c"
     id="path7" />
  <path
     d="m25.3 33c1.06-0.168 1.83-0.652 2.56-1.51-0.645-0.207-1.14-0.656-1.37-1.34 0.176-1.87 3.03-2.08 4.54-3.12-3.88-0.434-5.68-1.34-8-4.03-1 0-2.7-0.039-3.85-0.563-1.61 0.254-2.28 2.23-4.15 2.5 0.695 0.18 1.65 0.266 1.67 0.625 1.93-0.559 3.33-0.129 5.2 0.563-0.563 1.44-1.63 2.34-3.2 2.96 1.87 1.06 4.11 1.01 5.8 2.55 0.535 0.379 0.715 0.996 0.793 1.38"
     style="fill:#7c6f7c"
     id="path8" />
  <path
     d="m12.9 25.6-0.383 1.03 5.3 0.693-1.64 1.71c-0.0686-0.0149-0.14-0.0215-0.213-0.0215-0.551 0-1 0.449-1 1s0.449 1 1 1c0.168 0 0.328-0.0415 0.467-0.115l5.55 2.29c0.0221 0.127 0.0674 0.246 0.133 0.352l-1.07 1.48c-0.026-0.00204-0.0516-0.00391-0.0781-0.00391-0.551 0-1 0.449-1 1s0.449 1 1 1c0.33 0 0.622-0.162 0.805-0.41l2.41 0.0215c0.183 0.236 0.468 0.389 0.789 0.389 0.551 0 1-0.449 1-1s-0.449-1-1-1c-0.455 0-0.841 0.307-0.961 0.725l-2.08 0.00195c-0.0103-0.0367-0.0208-0.0726-0.0352-0.107l1.12-1.62c0.527-0.0269 0.949-0.464 0.949-0.998 0-0.551-0.449-1-1-1-0.195 0-0.377 0.057-0.531 0.154l-5.48-2.43 1.68-1.78c0.103 0.0363 0.214 0.0566 0.33 0.0566 0.551 0 1-0.449 1-1s-0.449-1-1-1c-0.326 0-0.616 0.156-0.799 0.398l-5.26-0.805z"
     style="fill:#e0523e"
     id="path9" />
  <path
     d="m24.7 11.5-11.7 13.5c-0.0118-4.17e-4 -0.0232-0.00195-0.0352-0.00195-0.551 0-1 0.449-1 1s0.449 1 1 1 1-0.449 1-1c0-0.123-0.0218-0.241-0.0625-0.35l11.4-13.2-0.639-0.957z"
     style="fill:#289a59"
     id="path10" />
  <path
     d="m25 11c-0.551 0-1 0.449-1 1 0 0.55 0.448 0.999 0.998 1 6.61e-4 1e-6 0.00129 0 0.00195 0l9.02 10.8c-0.016 0.0709-0.0234 0.145-0.0234 0.221 0 0.551 0.449 1 1 1s1-0.449 1-1-0.449-1-1-1c-0.0417 0-0.0827 0.00282-0.123 0.00781l-8.94-10.7c0.0389-0.107 0.0605-0.222 0.0605-0.342 0-0.551-0.449-1-1-1z"
     style="fill:#2c7ccc"
     id="path11" />
</svg>
